<?xml version="1.0" standalone="no"?>
<!DOCTYPE svg PUBLIC "-//W3C//DTD SVG 20010904//EN"
 "http://www.w3.org/TR/2001/REC-SVG-20010904/DTD/svg10.dtd">
<svg version="1.0" xmlns="http://www.w3.org/2000/svg"
 width="752.000000pt" height="752.000000pt" viewBox="0 0 752.000000 752.000000"
 preserveAspectRatio="xMidYMid meet">
<metadata>
Created by potrace 1.11, written by Peter Selinger 2001-2013
</metadata>
<g transform="translate(0.000000,752.000000) scale(0.100000,-0.100000)"
fill="#000000" stroke="none">
<path d="M0 3760 l0 -3760 3760 0 3760 0 0 3760 0 3760 -3760 0 -3760 0 0
-3760z m5703 -88 l-323 -2 0 -995 0 -995 -615 0 -615 0 0 625 0 625 -400 0
-400 0 -2 -622 -3 -623 -612 -3 -613 -2 0 995 0 995 -323 2 -323 3 1119 1153
1119 1154 1157 -1154 1156 -1153 -322 -3z"/>
</g>
</svg>
